<svg width="256" height="256" viewBox="0 0 256 256" fill="none" xmlns="http://www.w3.org/2000/svg">
  <rect width="256" height="256" rx="72" fill="url(#paint0_linear)"/>
  <rect x="64" y="72" width="128" height="112" rx="32" fill="#F8FBFF"/>
  <rect x="96" y="24" width="64" height="28" rx="14" fill="#B9F2FF"/>
  <rect x="120" y="40" width="16" height="36" rx="8" fill="#7DE3FF"/>
  <circle cx="104" cy="120" r="16" fill="#1F6BFF"/>
  <circle cx="152" cy="120" r="16" fill="#1F6BFF"/>
  <circle cx="104" cy="120" r="7" fill="#DDF7FF"/>
  <circle cx="152" cy="120" r="7" fill="#DDF7FF"/>
  <rect x="96" y="154" width="64" height="12" rx="6" fill="#8BCBFF"/>
  <rect x="44" y="112" width="20" height="12" rx="6" fill="#9FE9FF"/>
  <rect x="192" y="112" width="20" height="12" rx="6" fill="#9FE9FF"/>
  <rect x="82" y="188" width="18" height="32" rx="9" fill="#9FE9FF"/>
  <rect x="156" y="188" width="18" height="32" rx="9" fill="#9FE9FF"/>
  <defs>
    <linearGradient id="paint0_linear" x1="28" y1="20" x2="228" y2="238" gradientUnits="userSpaceOnUse">
      <stop stop-color="#1ED7F6"/>
      <stop offset="1" stop-color="#2A5FFF"/>
    </linearGradient>
  </defs>
</svg>
